# xmcd
#
# Track frame offsets: 
#        150
#        23100
#        39750
#        60915
#        72165
#        95265
#        160515
#        189690
#
# Disc length: 2761 seconds
#
# Revision: 0
# Processed by: cddbd v1.5.2PL0 Copyright (c) Steve Scherf et al.
# Submitted via: ExactAudioCopy v0.99pb5
#
DISCID=540ac708
DTITLE=Gary Lucas and Jozef van Wissen - The Universe of Absence
DYEAR=2004
DGENRE=Improvisations
TTITLE0=A hawk from a Handsaw
TTITLE1=These Days (Jackson Browne)
TTITLE2=New Worlds for Old
TTITLE3=The Sickness into Death
TTITLE4=Screw your Courage to the Sticking Place
TTITLE5=The Universe of Absence
TTITLE6=Too tender for this World
TTITLE7=Tomorrow never knows (Lennon/McCartney)
EXTD=
EXTT0=
EXTT1=
EXTT2=
EXTT3=
EXTT4=
EXTT5=
EXTT6=
EXTT7=
PLAYORDER=
